<?xml version="1.0" encoding="utf-8"?>
<!-- Generator: Adobe Illustrator 16.0.0, SVG Export Plug-In . SVG Version: 6.00 Build 0)  -->
<!DOCTYPE svg PUBLIC "-//W3C//DTD SVG 1.1//EN" "http://www.w3.org/Graphics/SVG/1.1/DTD/svg11.dtd">
<svg version="1.1" id="Layer_1" xmlns="http://www.w3.org/2000/svg" xmlns:xlink="http://www.w3.org/1999/xlink" x="0px" y="0px"
	 width="1000px" height="1000px" viewBox="0 0 1000 1000" enable-background="new 0 0 1000 1000" xml:space="preserve">
<g id="BOX">
	
		<radialGradient id="SVGID_1_" cx="306" cy="605" r="500" gradientTransform="matrix(1 0 0 -1 194 1105)" gradientUnits="userSpaceOnUse">
		<stop  offset="0.3046" style="stop-color:#ED559E"/>
		<stop  offset="0.3547" style="stop-color:#E75099"/>
		<stop  offset="0.5703" style="stop-color:#D33F88"/>
		<stop  offset="0.7858" style="stop-color:#C7347E"/>
		<stop  offset="1" style="stop-color:#C3317B"/>
	</radialGradient>
	<rect fill="url(#SVGID_1_)" width="1000" height="1000"/>
</g>
<g id="Petals">
	<g id="petal_x2B_pink">
		<path id="B_x5F_1_2_" fill="#E994BF" d="M347.1,538.1c5.5-32.1,16.9-111.7,56.7-118.3c39.8-6.6,74.2,36,91.8,56.5
			c20.7,24.2,69.2,77.9,31.6,123.5c0,0-14.7,20.2-76.7,34.4c-55.4,12.7-72.4,17.5-90.2,6.3C342.3,629.4,337.2,595.5,347.1,538.1z"/>
		<path id="B_x5F_2_2_" fill="#E994BF" d="M281.1,359.1c30.5,11.6,104.8,42.2,130.7,11.3c25.9-30.9,6.7-82.3-2.1-107.7
			c-10.3-30.2-31.9-99.2-90.4-90c0,0-24.8,2.4-68.6,48.6c-39.1,41.2-51.8,53.5-51.2,74.5C200,316.8,226.7,338.4,281.1,359.1z"/>
		<path id="B_x5F_3_1_" fill="#E994BF" d="M679.2,202.2c-8.3,31.5-26.6,109.8-66.8,112.9c-40.2,3.1-70.8-42.4-86.4-64.3
			c-18.5-25.9-62.2-83.7-20.7-125.8c0,0,16.4-18.8,79.5-27.6c56.3-7.8,73.6-11,90.4,1.6C691.9,111.6,694,145.9,679.2,202.2z"/>
		<path id="B_x5F_4_1_" fill="#E994BF" d="M737.1,363.2c-30.4-11.9-104.4-43.3-130.6-12.6c-26.2,30.6-7.5,82.2,1,107.8
			c10,30.3,30.9,99.5,89.4,90.9c0,0,24.8-2.2,69.1-47.9c39.5-40.8,52.3-52.9,52-74C817.7,406.3,791.3,384.4,737.1,363.2z"/>
	</g>
	<g id="petal_x5F_white">
		<path id="_x31__1_" opacity="0.8" fill="#FFFFFF" enable-background="new    " d="M266.3,371.3c29.3-14.2,100.7-51.3,129.2-22.8
			s13.9,81.3,7.5,107.5c-7.6,31-23,101.7-82,97.7c0,0-24.9-0.2-72.7-42.3c-42.6-37.6-56.3-48.7-57.7-69.7
			C189.3,420.7,214,396.7,266.3,371.3z"/>
		<path id="_x32__1_" opacity="0.8" fill="#FFFFFF" enable-background="new    " d="M333.3,193.6c6.3,32,19.6,111.3,59.6,116.9
			c39.9,5.6,73.3-37.9,90.3-58.8c20.1-24.7,67.3-79.6,28.6-124.3c0,0-15.2-19.8-77.6-32.5c-55.6-11.4-72.8-15.7-90.3-4.1
			C326.3,102.4,322,136.5,333.3,193.6z"/>
		<path id="_x33__2_" opacity="0.8" fill="#FFFFFF" enable-background="new    " d="M744.8,343.9c-29.2,14.5-100.1,52.4-128.9,24.2
			c-28.8-28.2-14.8-81.2-8.6-107.4c7.3-31,22-101.9,81-98.5c0,0,24.9,0,73.1,41.6c43,37.1,56.8,48.1,58.4,69.1
			C821.3,293.8,796.9,318,744.8,343.9z"/>
		<path id="_x34__1_" opacity="0.8" fill="#FFFFFF" enable-background="new    " d="M693.5,540.7c-5-32.2-15-112-54.7-119.2
			s-74.8,34.8-92.7,55c-21.1,23.9-70.5,76.7-33.7,123c0,0,14.4,20.4,76.2,35.7c55.1,13.6,72.1,18.7,90.1,7.8
			S702.3,598.2,693.5,540.7z"/>
	</g>
</g>
<g id="Text">
	<path id="line_x5F_left" fill="#E994BF" d="M222.5,896.8c0,3.2-2.6,5.8-5.8,5.8H35.3c-3.2,0-5.8-2.6-5.8-5.8l0,0
		c0-3.2,2.6-5.8,5.8-5.8h181.5C219.9,891,222.5,893.6,222.5,896.8L222.5,896.8z"/>
	<path id="line_x5F_right" fill="#E994BF" d="M976.9,896.5c0,3.2-2.6,5.8-5.8,5.8H789.6c-3.2,0-5.8-2.6-5.8-5.8l0,0
		c0-3.2,2.6-5.8,5.8-5.8h181.5C974.3,890.8,976.9,893.4,976.9,896.5L976.9,896.5z"/>
	<g id="asian_x5F_craft_x5F_galore">
		<path opacity="0.8" fill="#FFFFFF" enable-background="new    " d="M119.8,810.8v-3.9c8.5-1.2,9.7-2.4,7.9-7.8
			c-1.9-5.3-4.4-12-7.3-19.7H90.9c-2.3,6.2-4.1,11.4-5.9,16.7c-2.9,8.2-1.8,9.7,8.5,10.8v3.9H63.2v-3.9c8.9-1.4,10.8-2.3,15.7-14.2
			l28.8-70l4.8-1.2c8.8,23.8,17.6,47.6,26.7,71.2c4.4,11.8,6.3,13.3,15.2,14.2v3.9H119.8z M106.3,739.9H106
			c-4.4,11.1-8.7,22.6-12.9,33.4h25.2L106.3,739.9z"/>
		<path opacity="0.8" fill="#FFFFFF" enable-background="new    " d="M209.5,744.5c-2.4-8.6-6.6-18.4-18.2-18.4
			c-10.3,0-15.1,7.3-15.1,14.6c0,9.5,6.3,14,17.5,19.5c11.7,5.7,23.8,12,23.8,26.8c0,14.4-12.3,25.9-31,25.9c-5.7,0-10.3-1-13.8-2.2
			c-3.5-1.1-5.4-2.2-6.8-2.8c-0.9-2.7-2.9-14.9-3.8-21.4l4.1-1.2c2.3,8.5,9,22.6,23,22.6c10,0,15.9-6.2,15.9-15.8
			c0-9.7-7.3-14.3-17.8-19.8c-9.5-4.8-22.7-11.5-22.7-26.3c0-13.4,10.8-24.5,28.7-24.5c6.5,0,12.7,1.6,17.8,3.2
			c0.6,4.8,1.2,10.3,2.4,19.1L209.5,744.5z"/>
		<path opacity="0.8" fill="#FFFFFF" enable-background="new    " d="M226,810.8v-3.9c11.2-0.8,12.4-1.7,12.4-13.2v-53
			c0-11.7-1.2-12.5-12.4-13.2v-4h37.5v4c-11.1,0.7-12.3,1.6-12.3,13.2v53c0,11.6,1.2,12.4,12.3,13.2v3.9H226z"/>
		<path opacity="0.8" fill="#FFFFFF" enable-background="new    " d="M322.9,810.8v-3.9c8.5-1.2,9.7-2.4,7.9-7.8
			c-1.9-5.3-4.4-12-7.3-19.7H294c-2.3,6.2-4.1,11.4-5.9,16.7c-2.9,8.2-1.8,9.7,8.5,10.8v3.9h-30.3v-3.9c8.9-1.4,10.8-2.3,15.7-14.2
			l28.8-70l4.8-1.2c8.8,23.8,17.6,47.6,26.7,71.2c4.4,11.8,6.3,13.3,15.2,14.2v3.9H322.9z M309.4,739.9h-0.3
			c-4.4,11.1-8.7,22.6-12.9,33.4h25.2L309.4,739.9z"/>
		<path opacity="0.8" fill="#FFFFFF" enable-background="new    " d="M592.3,787.8c-1.8,6.4-5.6,17-8,21.3c-4,0.9-16.2,3.9-26.3,3.9
			c-35.4,0-51.2-23.4-51.2-44.6c0-28.3,22.9-46.8,54.7-46.8c11.8,0,21.7,3.2,25.5,3.9c1.1,7.6,2.1,13.4,2.9,21l-4.1,0.9
			c-3.8-14.9-12.9-20.7-27.9-20.7c-23.4,0-35.9,18.9-35.9,38.9c0,25.3,15.5,42.2,37.1,42.2c14.2,0,22-7.6,29.3-21.5L592.3,787.8z"/>
		<path opacity="0.8" fill="#FFFFFF" enable-background="new    " d="M742,810.8v-3.9c8.5-1.2,9.7-2.4,7.9-7.8
			c-1.9-5.3-4.4-12-7.3-19.7h-29.5c-2.3,6.2-4.1,11.4-5.9,16.7c-2.9,8.2-1.8,9.7,8.5,10.8v3.9h-30.3v-3.9
			c8.9-1.4,10.8-2.3,15.7-14.2l28.8-70l4.8-1.2c8.8,23.8,17.6,47.6,26.7,71.2c4.4,11.8,6.3,13.3,15.2,14.2v3.9H742z M728.5,739.9
			h-0.3c-4.4,11.1-8.7,22.6-12.9,33.4h25.2L728.5,739.9z"/>
		<path opacity="0.8" fill="#FFFFFF" enable-background="new    " d="M844,744.3c-1.2-5.3-2.1-8.3-4.1-10.9c-2.4-3.8-5.3-5-15.5-5
			h-10c-4.3,0-4.7,0.4-4.7,4.4v31.4h13.8c12.6,0,13.3-1.3,15.1-10h4v26.4h-4.1c-1.7-9.4-2.4-10.8-15-10.8h-13.8v23.4
			c0,11.9,1.2,12.8,13.8,13.7v3.9h-38.6v-3.9c10.9-0.8,12.1-1.7,12.1-13.7v-52.4c0-11.8-1.2-12.6-11.8-13.3v-4h61.5
			c0.2,5,0.8,13.5,1.5,20.2L844,744.3z"/>
		<path opacity="0.8" fill="#FFFFFF" enable-background="new    " d="M932,745.2c-1.5-6.7-2.9-10.3-4.7-12.6
			c-2.3-3.1-4.7-4.1-15.1-4.1h-9.4V794c0,10.6,1.2,12.2,14.2,13v3.9h-40.7V807c12.6-0.8,13.8-2.3,13.8-13v-65.5h-8
			c-11.9,0-14.8,1.3-16.6,4.1c-1.7,2.3-2.9,6.2-4.7,12.6h-4.1c0.6-8.7,1.3-17.6,1.6-25.1h2.9c2,3.4,3.8,3.4,7.8,3.4h55.6
			c3.8,0,5-0.8,7.2-3.4h2.9c0,6.2,0.7,16.5,1.4,24.6L932,745.2z"/>
		<path opacity="0.8" fill="#FFFFFF" enable-background="new    " d="M326.5,903c-8.2,1.3-8.6,1.9-8.6,10.1v11.2
			c0,4.7,0.1,9,0.9,12.4c-8.7,2-20.5,5.2-31.9,5.2c-31.2,0-52.1-18.5-52.1-45.2c0-30.8,26.1-46.3,54-46.3c11.9,0,23,3,27.7,4
			c0.4,4.7,1,12.1,2.1,21.7l-4,0.9c-3.3-16.7-14.1-21.7-27.9-21.7c-21,0-36.6,15.1-36.6,39.6c0,19.4,11.8,42,38.6,42
			c4.5,0,8.9-0.9,11.8-2.4c2.9-1.6,4.6-3.5,4.6-8.6v-11c0-9.9-0.8-10.8-14.8-11.9v-3.9h36.3L326.5,903L326.5,903z"/>
		<path opacity="0.8" fill="#FFFFFF" enable-background="new    " d="M389.1,939.8v-3.9c8.5-1.2,9.7-2.4,7.9-7.8
			c-1.9-5.3-4.4-12-7.3-19.7h-29.5c-2.3,6.2-4.1,11.4-5.9,16.7c-2.9,8.2-1.8,9.7,8.5,10.8v3.9h-30.3v-3.9
			c8.9-1.4,10.8-2.3,15.7-14.2l28.8-70l4.8-1.2c8.8,23.8,17.6,47.6,26.7,71.2c4.4,11.8,6.3,13.3,15.2,14.2v3.9H389.1z M375.6,868.9
			h-0.3c-4.4,11.1-8.7,22.6-12.9,33.4h25.2L375.6,868.9z"/>
		<path opacity="0.8" fill="#FFFFFF" enable-background="new    " d="M499.5,918.1c-0.9,4.6-3.8,17.5-5.1,21.7h-63.3v-3.9
			c11.8-0.8,12.9-1.7,12.9-13.5v-52.7c0-11.7-0.9-12.5-12.3-13.2v-4h37.2v4c-10.8,0.7-12.1,1.5-12.1,13.2V922
			c0,7.3,0.6,9.9,3.2,11.3c2.7,1.5,7.3,1.7,12.8,1.7c7.3,0,12.1-0.8,15.2-4.3c2.6-2.6,5.1-7,7.4-13.4L499.5,918.1z"/>
		<path opacity="0.8" fill="#FFFFFF" enable-background="new    " d="M554.9,850.5c24.1,0,46,17.6,46,44.5c0,29-21.8,46.9-47.8,46.9
			c-25.8,0-46.4-19-46.4-44.9C506.7,872.7,525,850.5,554.9,850.5L554.9,850.5z M551.9,855.5c-15.4,0-30.1,12.6-30.1,38
			c0,24.7,14.6,43.3,34.3,43.3c15.4,0,29.6-12.3,29.6-38.3C585.6,870.4,570,855.5,551.9,855.5L551.9,855.5z"/>
		<path opacity="0.8" fill="#FFFFFF" enable-background="new    " d="M740.4,953.5c-11.7,8.9-23.1,9.2-31.2,7.9
			c-5.5-0.9-17.1-6-25.8-13.7c-9-8.1-13.8-14.7-17-19.2c-4.7-6.5-10.6-14.8-14.8-21.2c-2.5-3.9-4.9-5.5-11.9-5.5h-3.9v20.9
			c0,11.3,1.3,12.3,12.3,13.2v3.9H611v-3.9c11.1-0.9,12.4-1.9,12.4-13.2v-53.2c0-11.5-1.2-12.2-11.8-12.9v-4h35.1
			c10.4,0,17.1,1.2,22.3,4.7c5.6,3.5,9.1,9.5,9.1,17.6c0,11.7-7.5,18.6-17.3,22.8c2.4,4.4,8,13.2,12.1,19.4
			c5,7.1,7.2,10.6,10.1,14.2c3.6,4.3,9.4,12.2,21.2,20.4C716.2,959.8,734.1,955.3,740.4,953.5z M642,897.3c6.9,0,11.5-1.1,15-3.9
			c5.2-4,7.3-9.3,7.3-16.5c0-14.4-9.5-19.7-19.6-19.7c-4.1,0-6.3,0.6-7.3,1.3c-0.9,0.7-1.5,2.3-1.5,5.8v33H642L642,897.3z"/>
		<path opacity="0.8" fill="#FFFFFF" enable-background="new    " d="M729.9,824.5c-11.7,8.9-23.1,9.2-31.2,7.9
			c-5.5-0.9-17.1-6-25.8-13.7c-9-8.1-13.8-14.7-17-19.2c-4.7-6.5-10.6-14.8-14.8-21.2c-2.5-3.9-4.9-5.5-11.9-5.5h-3.9v20.9
			c0,11.3,1.3,12.3,12.3,13.2v3.9h-37.2v-3.9c11.1-0.9,12.4-1.9,12.4-13.2v-53.2c0-11.5-1.2-12.2-11.8-12.9v-4h35.1
			c10.4,0,17.1,1.2,22.3,4.7c5.6,3.5,9.1,9.5,9.1,17.6c0,11.7-7.5,18.6-17.3,22.8c2.4,4.4,8,13.2,12.1,19.4
			c5,7.1,7.2,10.6,10.1,14.2c3.6,4.3,9.4,12.2,21.2,20.4C705.7,830.8,723.5,826.3,729.9,824.5z M631.4,768.3c6.9,0,11.5-1.1,15-3.9
			c5.2-4,7.3-9.3,7.3-16.5c0-14.4-9.5-19.7-19.6-19.7c-4.1,0-6.3,0.6-7.3,1.3c-0.9,0.7-1.5,2.3-1.5,5.8v33H631.4L631.4,768.3z"/>
		<path opacity="0.8" fill="#FFFFFF" enable-background="new    " d="M768.7,918c-0.9,5-3.6,17.4-4.8,21.8h-67.4v-3.9
			c12.4-0.9,13.6-2.2,13.6-13.2v-52.6c0-12.3-1.2-12.7-11.8-13.6v-4h62.2c0.2,3.5,0.7,12.4,1.3,19.9l-4.2,0.6
			c-1.3-5.6-2.8-8.7-4.5-11.7c-2-2.9-5.8-3.9-15.2-3.9h-10.2c-4.5,0-4.8,0.4-4.8,4.4V892h12.6c12.3,0,13.2-1.1,15-10.2h4.1v26.3
			h-4.1c-1.9-9.8-2.9-10.6-15-10.6h-12.6v24.7c0,6.3,0.7,9.4,3.3,11c2.7,1.6,7.8,1.6,14,1.6c10,0,14.1-0.9,17.3-4.4
			c2.4-2.8,5-7.5,7-12.9L768.7,918z"/>
		<path opacity="0.8" fill="#FFFFFF" enable-background="new    " d="M460.9,727.6c-7.6,0.4-10.9,1.9-11.6,8.1
			c-0.5,4.3-0.8,10.4-0.8,22.8v53.7h-4.4l-60.3-69.9h-0.2l-0.1,32.7c0,12.4,0.6,18.7,0.9,22.6c0.6,7,3.8,8.6,13.2,9.4v3.9h-32.8V807
			c7.9-0.6,11.4-2.3,12-9c0.5-4.2,1.1-10.5,1.1-22.9v-28.8v-10.9c-1.3-1.5-14.7-18.5-25.3-23.5c-16.8-8-38.1,3.5-38.1,3.5
			s12.6-11.7,23.1-14c11.1-2.5,21.3,0.9,30.4,7.4c6.7,4.8,15.8,14.9,15.8,14.9l58.4,66.2h0.4v-31.3c0-12.5-0.6-18.5-0.9-22.4
			c-0.6-6.3-3.9-8.1-13.7-8.5v-4h32.7v3.9H460.9z"/>
	</g>
</g>
</svg>
