<?xml version="1.0" encoding="utf-8"?>
<!-- Generator: Adobe Illustrator 16.0.0, SVG Export Plug-In . SVG Version: 6.00 Build 0)  -->
<!DOCTYPE svg PUBLIC "-//W3C//DTD SVG 1.1//EN" "http://www.w3.org/Graphics/SVG/1.1/DTD/svg11.dtd">
<svg version="1.1" id="Layer_1" xmlns="http://www.w3.org/2000/svg" xmlns:xlink="http://www.w3.org/1999/xlink" x="0px" y="0px" viewBox="0 0 179 179" enable-background="new 0 0 179 179" xml:space="preserve" preserveAspectRatio="none">
<g id="facebook">
	<g>
		<g>
			<path fill="#061300" d="M123,176c0-24,0-46,0-69c8,0,15.1,0,22.7,0c1.2-8,2.3-18,3.5-26c-8.9,0-17.6,0-26.4,0
				c0-8-0.2-14.1,0-20.8c0.2-5.8,3.4-9.3,9.2-9.8c5.2-0.4,10.5-0.4,15.8-0.4c0.7,0,1.2,0,2.2,0c0-8,0-16.2,0-24.4
				c-11-0.5-21-2.1-31.4,0.5c-10.7,2.7-18,9.3-21.5,19.8c-1.1,3.2-1.8,6.6-1.9,10C94.8,63.2,95,70.5,95,77.8c0,0.7,0,2.2,0,3.2
				c-9,0-15,0-23,0c0,8,0,18,0,26c8,0,15,0,23,0c0,23,0,46,0,69H123z"/>
		</g>
		<g>
			<path d="M160,179H19c-10.5,0-19-8.5-19-19V19C0,8.5,8.5,0,19,0h141c10.5,0,19,8.5,19,19v141C179,170.5,170.5,179,160,179z M19,16
				c-1.7,0-3,1.4-3,3v141c0,1.7,1.4,3,3,3h141c1.7,0,3-1.4,3-3V19c0-1.7-1.4-3-3-3H19z"/>
		</g>
	</g>
</g>
</svg>
