<?xml version="1.0" encoding="utf-8"?>
<!-- Generator: Adobe Illustrator 16.0.0, SVG Export Plug-In . SVG Version: 6.00 Build 0)  -->
<!DOCTYPE svg PUBLIC "-//W3C//DTD SVG 1.1//EN" "http://www.w3.org/Graphics/SVG/1.1/DTD/svg11.dtd">
<svg version="1.1" id="Layer_1" xmlns="http://www.w3.org/2000/svg" xmlns:xlink="http://www.w3.org/1999/xlink" x="0px" y="0px" viewBox="0 0 179 179" enable-background="new 0 0 179 179" xml:space="preserve" preserveAspectRatio="none">
<g id="instagram">
	<g>
		<g>
			<path d="M160,179H19c-10.4,0-19-8.6-19-19V19C0,8.6,8.6,0,19,0h141c10.4,0,19,8.6,19,19v141C179,170.4,170.4,179,160,179z
				 M19,15.7c-1.8,0-3.2,1.5-3.2,3.2v141c0,1.8,1.5,3.2,3.2,3.2h141c1.8,0,3.2-1.5,3.2-3.2v-141c0-1.8-1.5-3.2-3.2-3.2H19z"/>
		</g>
		<path d="M11.8,12.8v59h34.4c0,0,8.7-29.3,43.4-28.4c34.7,0.9,43.8,28.4,43.8,28.4h33.8v-59H11.8z M163.3,48.8
			c0,1.3-1.1,2.4-2.4,2.4h-30.8c-1.3,0-2.4-1.1-2.4-2.4V18c0-1.3,1.1-2.4,2.4-2.4h30.8c1.3,0,2.4,1.1,2.4,2.4V48.8z"/>
		<g>
			<path fill="#061300" d="M89.6,147.1c-30.8,0-55.8-25.1-55.8-55.8s25.1-55.8,55.8-55.8c30.7,0,55.8,25.1,55.8,55.8
				C145.4,122.1,120.4,147.1,89.6,147.1z M89.6,51.2c-22.1,0-40,18-40,40s18,40,40,40s40-18,40-40S111.7,51.2,89.6,51.2z"/>
		</g>
	</g>
</g>
</svg>
