<?xml version="1.0" encoding="utf-8"?>
<!-- Generator: Adobe Illustrator 16.0.0, SVG Export Plug-In . SVG Version: 6.00 Build 0)  -->
<!DOCTYPE svg PUBLIC "-//W3C//DTD SVG 1.1//EN" "http://www.w3.org/Graphics/SVG/1.1/DTD/svg11.dtd">
<svg version="1.1" id="Layer_1" xmlns="http://www.w3.org/2000/svg" xmlns:xlink="http://www.w3.org/1999/xlink" x="0px" y="0px" viewBox="0 0 179 179" enable-background="new 0 0 179 179" xml:space="preserve" preserveAspectRatio="none">
<g id="linkedin">
	<g>
		<g>
			<path d="M160,179H19c-10.5,0-19-8.5-19-19V19C0,8.5,8.5,0,19,0h141c10.5,0,19,8.5,19,19v141C179,170.5,170.5,179,160,179z
				 M19,15.8c-1.8,0-3.2,1.4-3.2,3.2v141c0,1.8,1.4,3.2,3.2,3.2h141c1.8,0,3.2-1.4,3.2-3.2V19c0-1.8-1.4-3.2-3.2-3.2H19z"/>
		</g>
		<g>
			<path d="M93.8,79.5c0.7-1,1.3-2,2-2.9c3-3.9,6.8-6.6,11.3-8.3c3.3-1.3,6.6-1.9,10.2-2c5-0.1,9.9,0.4,14.7,2.1
				c5.1,1.9,9.1,5.2,11.9,9.9c2.3,3.9,3.5,8,4.2,12.4c0.4,2.8,0.8,5.5,0.9,8.4c0.2,5.8,0.2,11.8,0.2,17.6c0,11,0,21.9,0,32.8
				c0,0.4,0,0.7,0,1.3c-0.4,0-0.7,0-1,0c-7.9,0-15.8,0-23.7,0c-1.1,0-1.1,0-1.1-1.1c0-14.3,0-28.7,0-42.9c0-3.8-0.4-7.5-1.9-11
				c-1.8-4.2-4.9-6.3-9.3-6.8c-2.6-0.3-5-0.1-7.4,0.6c-4.3,1.2-6.8,4.2-8.3,8.1c-1,2.8-1.5,5.5-1.5,8.4c-0.1,14.4-0.1,28.9-0.2,43.4
				c0,1.5,0.1,1.3-1.3,1.3c-7.8,0-15.6,0-23.4,0c-0.8,0-1.1-0.2-1.1-1c0-26.8,0-53.7,0-80.5c0-1.1,0-1.2,1.2-1.2
				c7.5,0,14.9,0,22.4,0c1.2,0,1.2,0,1.2,1.2c0,3.1,0,6.1,0,9.2C93.7,78.8,93.7,79.1,93.8,79.5C93.7,79.4,93.7,79.5,93.8,79.5z"/>
		</g>
		<g>
			<path d="M27.2,150.8c0-0.5,0-0.8,0-1.2c0-26.7,0-53.5,0-80.2c0-1.3,0-1.3,1.3-1.3c7.7,0,15.5,0,23.2,0c1.3,0,1.3,0,1.3,1.2
				c0,26.8,0,53.6,0,80.3c0,1.1,0,1.1-1.1,1.1c-7.8,0-15.6,0-23.5,0C28,150.8,27.6,150.8,27.2,150.8z"/>
		</g>
		<g>
			<path d="M25.1,42.1C25,34,31.9,27.1,40,27.2c8.3,0.1,15,6.6,15,15c-0.1,8.4-6.5,14.9-15,14.9C31.6,57.2,25,50.4,25.1,42.1z"/>
		</g>
	</g>
</g>
</svg>
